<?xml version="1.0" standalone="no"?>
<!DOCTYPE svg PUBLIC "-//W3C//DTD SVG 20010904//EN"
 "http://www.w3.org/TR/2001/REC-SVG-20010904/DTD/svg10.dtd">
<svg version="1.0" xmlns="http://www.w3.org/2000/svg"
 width="32.000000pt" height="24.000000pt" viewBox="0 0 32.000000 24.000000"
 preserveAspectRatio="xMidYMid meet">

<g transform="translate(0.000000,24.000000) scale(0.100000,-0.100000)"
fill="#000000" stroke="none">
<path d="M75 230 c-89 -36 -96 -159 -12 -210 38 -24 72 -25 109 -6 17 9 43 13
65 10 l38 -5 -29 24 c-29 25 -29 25 -7 36 12 7 19 16 16 22 -4 5 2 9 12 9 15
0 16 2 3 10 -12 8 -11 10 7 10 12 0 25 5 29 11 8 14 -24 7 -128 -25 -56 -18
-68 -25 -53 -30 55 -20 62 -36 23 -50 -53 -19 -118 34 -118 94 0 28 52 80 80
80 12 0 30 -5 41 -11 11 -5 30 -9 42 -7 20 3 19 6 -13 26 -36 23 -70 27 -105
12z"/>
</g>
</svg>
